<svg width="449" height="466" viewBox="0 0 449 466" fill="none" xmlns="http://www.w3.org/2000/svg">
<path d="M448.14 224.07C448.14 262.441 438.498 298.554 421.497 330.127C388.916 390.659 329.31 434.483 258.826 445.458C258.826 445.458 258.826 445.458 258.817 445.458C247.491 447.224 235.887 448.14 224.07 448.14C215.99 448.14 208.008 447.715 200.158 446.872C133.068 439.757 74.8186 403.04 38.7295 350.024C14.2864 314.125 0 270.766 0 224.07C0 100.316 100.316 0 224.07 0C347.824 0 448.14 100.316 448.14 224.07Z" fill="#0E403F"/>
<path d="M429.805 312.19C421.113 331.507 406.22 354.599 396.866 365.919C375.473 391.809 348.381 412.818 317.493 427.006C317.019 427.235 316.545 427.448 316.069 427.661C315.922 427.727 315.783 427.791 315.636 427.849C301.431 434.228 286.451 439.167 270.854 442.47C269.808 442.699 268.744 442.912 267.689 443.125C266.479 443.362 265.278 443.591 264.059 443.813C262.333 444.124 260.591 444.41 258.849 444.688C258.849 444.688 258.849 444.688 258.841 444.688C258.113 444.647 223.529 442.669 208.956 422.436C205.759 417.988 203.207 410.799 201.826 401.82C197.572 374.22 204.295 329.742 236.654 296.205C242.173 290.481 248.446 285.083 255.537 280.136L365.111 261.295C365.111 261.295 374.95 261.737 387.143 268.639C401.879 276.969 414.8 282.35 429.805 312.19Z" fill="#FF9331"/>
<g opacity="0.6">
<path d="M429.799 311.858C429.177 313.248 428.514 314.654 427.828 316.078C414.778 293.801 403.065 288.715 389.9 281.265C377.707 274.371 367.868 273.929 367.868 273.929L258.294 292.77C251.204 297.717 244.932 303.115 239.413 308.839C207.952 341.443 200.724 384.4 204.264 412.124C196.184 386.716 199.71 334.157 236.657 295.869C242.176 290.145 248.449 284.748 255.539 279.801L365.113 260.96C365.113 260.96 374.951 261.401 387.136 268.295C401.881 276.637 414.801 282.018 429.799 311.858Z" fill="white"/>
</g>
<path d="M396.866 365.919C364.597 404.983 319.333 432.926 267.691 443.125C263.57 432.568 261.28 420.849 261.28 408.509C261.28 361.985 293.869 324.278 334.062 324.278C360.826 324.276 384.223 341 396.866 365.919Z" fill="#F2D4D4"/>
<path d="M258.849 447.957C258.788 447.957 258.719 447.956 258.658 447.952C257.153 447.868 221.638 445.637 206.304 424.347C198.647 413.715 195.548 391.375 198.593 368.757C202.406 340.419 215.088 313.845 234.303 293.931C240.108 287.911 246.624 282.367 253.667 277.452C254.061 277.177 254.511 276.991 254.985 276.91L364.559 258.069C365.013 257.991 365.48 258.01 365.927 258.125C366.272 258.213 374.526 260.352 387.643 265.318C400.119 270.042 418.068 281.751 432.723 310.714C433.133 311.523 433.188 312.468 432.875 313.319C426.412 330.916 409.402 355.891 399.387 368.004C366.003 408.419 319.457 436.237 268.324 446.334C265.45 446.905 262.515 447.423 259.357 447.919C259.189 447.944 259.02 447.957 258.849 447.957ZM256.816 283.233C250.348 287.801 244.36 292.926 239.01 298.474C220.756 317.393 208.704 342.664 205.075 369.63C201.817 393.836 206.18 412.98 211.611 420.524C224.578 438.525 254.966 441.145 258.693 441.399C261.632 440.934 264.37 440.448 267.053 439.916C316.711 430.11 361.916 403.091 394.342 363.835C403.534 352.715 419.725 329.032 426.229 312.388C412.653 286.234 396.537 275.68 385.324 271.435C374.636 267.388 367.145 265.239 364.955 264.636L256.816 283.233Z" fill="#0E403F"/>
<path d="M386.484 272.224C372.35 293.26 337.618 313.228 301.35 313.238C276.072 313.245 253.538 309.294 236.657 296.206C242.176 290.481 248.447 285.082 255.535 280.133L365.113 261.297C365.113 261.295 374.968 264.262 386.484 272.224Z" fill="#42F4D2"/>
<path d="M294.486 316.745C272.431 316.745 249.124 309.871 234.668 298.802C233.929 298.235 233.465 297.381 233.396 296.452C233.326 295.522 233.656 294.607 234.303 293.937C240.106 287.915 246.621 282.368 253.663 277.452C254.058 277.176 254.508 276.991 254.982 276.91L364.559 258.074C364.69 258.052 364.82 258.037 364.952 258.03C365.46 258.005 377.531 257.511 389.82 266.007C391.236 266.987 391.651 268.896 390.768 270.375C374.97 296.829 342.462 313.642 301.58 316.504C299.239 316.663 296.868 316.745 294.486 316.745ZM241.701 295.773C254.716 304.347 277.104 311.655 301.121 309.973C338.407 307.363 368.188 292.747 383.454 269.708C374.682 264.624 366.683 264.538 365.441 264.556L256.815 283.23C251.409 287.05 246.341 291.257 241.701 295.773Z" fill="#0E403F"/>
<path d="M326.472 332.232C332.22 326.484 332.22 317.164 326.472 311.416C320.723 305.668 311.403 305.668 305.655 311.416C299.907 317.164 299.907 326.484 305.655 332.232C311.403 337.981 320.723 337.981 326.472 332.232Z" fill="#FFB012"/>
<g opacity="0.6">
<path d="M330.786 321.301C328.349 316.516 323.385 313.238 317.652 313.238C309.523 313.238 302.932 319.828 302.932 327.958C302.932 328.128 302.932 328.301 302.941 328.472C301.927 326.477 301.355 324.219 301.355 321.824C301.355 313.695 307.946 307.104 316.075 307.104C324.031 307.104 330.508 313.417 330.786 321.301Z" fill="white"/>
</g>
<g opacity="0.2">
<path d="M330.789 321.824C330.789 329.953 324.198 336.544 316.069 336.544C307.931 336.544 301.349 329.953 301.349 321.824C301.349 321.03 301.415 320.253 301.537 319.493C304.064 323.958 308.856 326.968 314.351 326.968C321.686 326.968 327.771 321.602 328.883 314.578C330.103 316.713 330.789 319.19 330.789 321.824Z" fill="#0E403F"/>
</g>
<path d="M316.069 339.815C306.15 339.815 298.078 331.745 298.078 321.824C298.078 311.904 306.15 303.833 316.069 303.833C325.989 303.833 334.061 311.904 334.061 321.824C334.061 331.744 325.991 339.815 316.069 339.815ZM316.069 310.374C309.756 310.374 304.621 315.511 304.621 321.824C304.621 328.137 309.756 333.272 316.069 333.272C322.382 333.272 327.517 328.135 327.517 321.824C327.519 315.511 322.382 310.374 316.069 310.374Z" fill="#0E403F"/>
<path d="M311.327 454.827C299.339 466.563 274.446 464.992 264.059 443.812C262.277 440.174 260.919 435.963 260.142 431.129C260.134 431.12 260.134 431.112 260.134 431.112C259.929 429.885 259.767 428.626 259.643 427.317L229.386 410.144C229.386 410.144 230.801 409.693 233.279 409.032C248.302 405.017 302.372 393.134 315.474 426.041C315.687 426.564 315.883 427.104 316.071 427.652V427.661C320.15 439.568 317.386 448.898 311.327 454.827Z" fill="#FF9331"/>
<g opacity="0.2">
<path d="M264.059 443.811C262.332 444.122 260.591 444.408 258.849 444.686C258.849 444.686 258.849 444.686 258.841 444.686C258.113 444.645 223.528 442.666 208.956 422.434C205.759 417.986 203.207 410.797 201.825 401.818C201.924 401.287 202.045 400.787 202.201 400.33C202.201 400.33 216.34 435.6 260.132 431.112C260.132 431.112 260.132 431.12 260.141 431.129C260.369 431.455 264.311 437.147 270.854 442.472C277.438 447.829 286.645 452.8 297.342 451.557C315.275 449.481 315.937 433.329 315.636 427.85C315.578 426.721 315.472 426.043 315.472 426.043L317.491 427.007C317.017 427.236 316.543 427.449 316.068 427.663C328.221 463.127 279.696 475.704 264.059 443.811Z" fill="#0E403F"/>
</g>
<g opacity="0.6">
<path d="M311.327 454.827C317.322 436.051 310.112 423.428 295.859 415.927C272.379 403.57 233.279 409.032 233.279 409.032C248.301 405.017 302.372 393.134 315.473 426.041C315.687 426.564 315.883 427.104 316.071 427.652V427.661C320.15 439.568 317.386 448.898 311.327 454.827Z" fill="white"/>
</g>
<path d="M229.234 409.665C233.043 407.749 237.009 406.282 241.041 404.985C243.06 404.354 245.092 403.75 247.151 403.247C249.205 402.721 251.275 402.247 253.362 401.846C257.536 401.037 261.774 400.483 266.052 400.226C270.331 399.985 274.649 400.097 278.959 400.503C283.268 400.943 287.586 401.614 291.846 402.771C296.099 403.921 300.314 405.545 304.189 407.93C308.06 410.296 311.591 413.41 314.297 417.156C316.995 420.896 318.934 425.156 320.014 429.518C321.157 433.881 321.654 438.586 320.859 443.273C320.114 447.949 318 452.505 314.817 456.105C311.648 459.736 307.471 462.3 303.066 463.879C298.64 465.462 293.909 466.005 289.268 465.622C284.633 465.204 280.063 463.859 275.992 461.581C271.917 459.321 268.337 456.2 265.575 452.533C262.801 448.88 260.68 444.784 259.55 440.463C259.309 439.373 259.079 438.287 258.883 437.2C258.727 436.107 258.683 434.996 258.619 433.903L258.563 432.263C258.602 431.711 258.636 431.165 258.692 430.616C258.802 429.521 258.93 428.436 259.144 427.363C259.199 427.081 259.475 426.896 259.758 426.952C259.925 426.986 260.059 427.096 260.129 427.24L260.142 427.269C261.999 431.221 263.244 435.012 265.005 438.524C266.717 442.017 268.491 445.388 270.908 448.257C273.315 451.112 276.197 453.511 279.45 455.219C282.7 456.921 286.273 458.013 289.93 458.326C293.579 458.68 297.298 458.27 300.742 457.143C304.171 456 307.366 454.134 309.743 451.52C312.126 448.921 313.715 445.673 314.343 442.146C314.966 438.613 314.644 434.851 313.688 431.183C312.772 427.46 311.174 424.019 309.008 421.003C306.83 417.992 304.002 415.485 300.779 413.51C294.293 409.567 286.379 407.734 278.43 407.287C274.437 407.067 270.414 407.104 266.376 407.258C262.336 407.383 258.277 407.629 254.203 407.957C246.047 408.578 237.857 409.612 229.537 410.619L229.523 410.621C229.246 410.655 228.992 410.457 228.958 410.178C228.932 409.963 229.049 409.76 229.234 409.665Z" fill="#0E403F"/>
<path d="M409.327 349.498C407.929 351.854 403.832 358.265 396.514 366.352C396.514 366.352 410.113 416.685 376.584 423.228C371.735 424.176 367.565 423.514 364.056 421.642C351.347 414.888 347.407 392.235 351.635 372.626C352.06 370.663 352.568 368.725 353.157 366.836C353.157 366.827 353.157 366.819 353.157 366.819L353.165 366.802C356.273 356.842 361.653 348.271 369.227 343.904C388.305 332.896 405.88 345.36 409.299 348.042C409.691 348.345 409.896 348.525 409.896 348.525C409.896 348.525 409.713 348.86 409.327 349.498Z" fill="#FF9331"/>
<g opacity="0.6">
<path d="M409.893 348.525C409.893 348.525 409.713 348.86 409.329 349.498C401.159 347.535 385.099 341.1 372.881 349.361C360.903 357.458 345.273 394.745 364.058 421.643C351.349 414.888 347.409 392.235 351.637 372.626C352.062 370.663 352.569 368.725 353.158 366.836C353.158 366.828 353.158 366.819 353.158 366.819L353.167 366.802C356.274 356.842 361.655 348.271 369.229 343.904C388.307 332.896 405.881 345.36 409.3 348.043C409.688 348.344 409.893 348.525 409.893 348.525Z" fill="white"/>
</g>
<g opacity="0.2">
<path d="M396.514 366.352C396.514 366.352 410.113 416.685 376.585 423.228C354.146 427.603 346.245 397.639 351.634 372.624L353.156 366.851C352.771 368.535 341.944 417.062 371.563 412.009C401.698 406.865 391.541 356.874 391.541 356.874C395.949 357.078 403.579 352.221 409.296 348.042C409.688 348.345 409.893 348.525 409.893 348.525C409.893 348.525 405.804 356.088 396.514 366.352Z" fill="#0E403F"/>
</g>
<path d="M372.333 426.926C362.446 426.926 354.525 420.608 350.187 409.016C342.117 387.446 348.08 352.326 367.589 341.071C390.605 327.792 411.829 345.874 412.041 346.059C413.195 347.064 413.5 348.736 412.77 350.082C412.603 350.392 408.732 357.476 400.099 367.246C401.644 373.938 406.204 397.926 396.483 413.529C392.179 420.439 385.694 424.782 377.209 426.437C375.54 426.764 373.911 426.926 372.333 426.926ZM385.591 342.687C381.001 342.687 375.992 343.774 370.859 346.736C354.762 356.023 349.317 388.018 356.314 406.723C359.039 414.004 364.656 422.221 375.957 420.016C382.681 418.704 387.578 415.45 390.93 410.069C400.586 394.568 393.425 367.474 393.352 367.203C393.061 366.129 393.339 364.979 394.085 364.153C399.951 357.674 403.697 352.28 405.574 349.347C402.059 346.919 394.64 342.687 385.591 342.687Z" fill="#0E403F"/>
<path d="M393.137 367.919C392.978 366.702 392.76 365.409 392.538 364.152C392.311 362.888 392.068 361.622 391.792 360.364C391.237 357.846 390.612 355.344 389.668 352.9C391.531 354.755 393.188 356.867 394.769 359.01C395.561 360.085 396.323 361.18 397.076 362.287C397.829 363.404 398.555 364.495 399.285 365.685L399.315 365.736C400.283 367.313 399.789 369.377 398.211 370.345C396.634 371.313 394.571 370.819 393.603 369.241C393.352 368.828 393.198 368.368 393.137 367.919Z" fill="#0E403F"/>
<path d="M432.219 184.07C432.219 184.725 432.21 185.395 432.194 186.074C431.376 217.967 403.572 235.141 383.945 239.228L317.706 101.024V98.5697C322.13 92.9353 330.087 89.1407 338.6 87.6937C347.391 86.189 356.779 87.1791 363.502 91.2107C379.858 101.024 380.676 119.015 394.578 128.011C404.291 134.292 432.014 150.059 432.219 184.07Z" fill="#AE531E"/>
<g opacity="0.6">
<path d="M432.219 184.736C432.219 185.391 432.21 186.062 432.193 186.74C431.645 208.15 418.938 222.926 404.7 231.563C416.272 222.648 425.594 209.213 426.061 190.945C426.078 190.266 426.087 189.596 426.087 188.941C425.882 154.93 398.161 139.162 388.444 132.882C374.542 123.886 373.724 105.895 357.368 96.0816C350.645 92.0501 341.257 91.0599 332.466 92.5646C328.091 93.3093 323.863 94.6751 320.192 96.5876C324.787 92.4089 331.501 89.5705 338.6 88.3604C347.391 86.8558 356.779 87.8459 363.502 91.8774C379.858 101.691 380.675 119.682 394.578 128.677C404.291 134.958 432.014 150.726 432.219 184.736Z" fill="white"/>
</g>
<g opacity="0.2">
<path d="M432.219 184.07C432.219 184.725 432.21 185.395 432.194 186.074C431.376 217.967 403.572 235.141 383.945 239.228L317.706 101.024V98.5696C322.13 92.9353 330.087 89.1407 338.6 87.6936C344.341 90.8755 349.672 94.6769 354.35 98.595C367.958 109.987 376.798 125.934 388.133 139.591C393.016 145.462 398.413 150.99 402.214 157.606C406.662 165.351 409.042 174.722 416.018 180.299C420.509 183.89 426.591 185.1 432.219 184.07Z" fill="#0E403F"/>
</g>
<path d="M242.806 112.604L229.926 265.323C221.961 266.582 212.001 266.337 202.162 263.671C187.541 259.706 173.172 250.399 165.951 232.751C152.54 199.982 173.532 174.624 180.515 165.114C190.32 151.775 184.694 134.66 196.503 119.687C204.248 109.857 221.11 104.861 233.858 107.338C236.827 107.91 239.573 108.892 241.929 110.316L242.806 112.604Z" fill="#AE531E"/>
<g opacity="0.2">
<path d="M242.806 112.604L229.926 265.323C221.961 266.582 212.001 266.337 202.162 263.671C197.068 259.452 192.757 254.242 189.528 248.469C182.634 236.146 180.451 221.499 182.013 207.458C183.157 197.146 186.217 187.153 189.259 177.234C190.772 172.31 192.285 167.388 193.798 162.465C195.655 156.406 197.518 150.336 199.383 144.277C200.839 139.535 202.311 134.75 204.691 130.392C209.017 122.476 216.148 116.383 224.023 111.976C227.196 110.209 230.492 108.689 233.861 107.338C236.83 107.91 239.577 108.892 241.933 110.316L242.806 112.604Z" fill="#0E403F"/>
</g>
<g opacity="0.6">
<path d="M242.803 111.841L242.664 113.533C229.694 109.215 210.239 114.18 201.743 124.957C189.934 139.931 195.551 157.047 185.747 170.384C178.764 179.894 157.778 205.255 171.19 238.021C172.891 242.177 174.993 245.873 177.396 249.143C172.752 244.597 168.793 238.937 165.948 231.978C152.545 199.218 173.529 173.85 180.512 164.347C190.317 151.002 184.699 133.894 196.508 118.912C206.06 106.792 229.456 102.032 241.934 109.54L242.803 111.841Z" fill="white"/>
</g>
<path d="M383.944 242.5C382.705 242.5 381.547 241.794 380.995 240.643L314.756 102.439C314.343 101.575 314.341 100.621 314.673 99.7983C314.248 98.7472 314.384 97.5049 315.133 96.5503C325.231 83.6992 350.49 79.5898 365.184 88.406C374.505 93.998 379.23 102.142 383.399 109.329C387.007 115.549 390.417 121.423 396.353 125.265C396.856 125.59 397.408 125.942 398.002 126.32C409.484 133.626 436.371 150.737 435.463 186.156C435.076 201.277 428.81 214.875 417.343 225.478C408.355 233.79 396.424 239.969 384.612 242.43C384.389 242.478 384.165 242.5 383.944 242.5ZM320.813 99.9438L385.756 235.442C401.646 231.27 428.14 216.566 428.924 185.991C429.736 154.271 405.037 138.553 394.49 131.841C393.88 131.453 393.315 131.093 392.799 130.759C385.546 126.066 381.578 119.228 377.741 112.614C373.601 105.48 369.691 98.7421 361.818 94.0184C350.288 87.0994 329.227 90.2458 320.813 99.9438Z" fill="#0E403F"/>
<path d="M220.167 269.343C211.202 269.343 201.995 267.62 193.818 264.321C179.336 258.477 168.651 247.989 162.922 233.99C149.502 201.199 168.568 175.66 176.709 164.753C177.13 164.19 177.521 163.665 177.877 163.183C182.064 157.486 183.166 150.783 184.332 143.687C185.679 135.488 187.207 126.198 193.937 117.661C204.545 104.204 229.62 99.0824 243.62 107.513C244.661 108.139 245.226 109.254 245.204 110.387C245.807 111.038 246.144 111.93 246.064 112.883L233.184 265.599C233.057 267.099 231.923 268.319 230.437 268.554C227.1 269.082 223.65 269.341 220.167 269.343ZM227.059 109.965C216.613 109.965 204.845 114.389 199.075 121.708C193.39 128.92 192.126 136.605 190.789 144.744C189.548 152.29 188.265 160.09 183.151 167.053C182.787 167.547 182.386 168.086 181.954 168.665C174.475 178.682 156.961 202.144 168.979 231.51C180.563 259.818 210.55 264.162 226.886 262.424L239.516 112.699C236.045 110.833 231.68 109.965 227.059 109.965Z" fill="#0E403F"/>
<path d="M406.434 216.74C403.979 282.979 315.661 297.699 315.661 297.699C315.661 297.699 218.346 314.055 193.207 246.956C174.922 198.168 201.778 171.395 204.444 154.588C207.101 137.783 224.324 95.1526 278.044 86.7121C291.905 84.5372 304.098 85.1906 314.729 87.6531C347.988 95.3642 365.864 120.797 371.27 132.508C377.395 145.763 400.325 159.887 405.486 196.589C406.335 202.659 406.704 209.339 406.434 216.74Z" fill="#FF9331"/>
<path d="M405.486 196.591C393.489 205.889 378.426 211.426 362.07 211.426C322.89 211.426 291.128 179.662 291.128 140.485C291.128 119.501 300.239 100.643 314.729 87.6565C347.988 95.3675 365.864 120.801 371.27 132.511C377.395 145.765 400.325 159.889 405.486 196.591Z" fill="#AE531E"/>
<g opacity="0.6">
<path d="M406.434 215.048C406.425 215.325 406.408 215.604 406.393 215.873C406.237 212.39 405.927 209.087 405.486 205.937C400.325 169.235 377.395 155.113 371.27 141.855C366.462 131.436 351.791 110.167 325.205 100.166C325.205 100.191 325.197 100.215 325.188 100.24C324.64 102.178 320.854 102.808 316.716 101.647C312.618 100.494 309.733 98.0162 310.215 96.0851C300.679 94.4078 289.983 94.1878 278.044 96.0614C224.324 104.5 207.103 147.131 204.444 163.937C202.579 175.705 188.841 192.371 187.067 218.065C184.867 185.975 202.318 166.276 204.444 152.897C207.101 136.092 224.324 93.4617 278.044 85.0212C291.905 82.8463 304.098 83.4996 314.729 85.9622C347.988 93.6733 365.864 119.106 371.27 130.817C377.395 144.073 400.325 158.196 405.486 194.898C406.335 200.966 406.704 207.646 406.434 215.048Z" fill="white"/>
</g>
<g opacity="0.2">
<path d="M407.078 218.064C404.624 284.303 316.306 299.023 316.306 299.023C316.306 299.023 218.991 315.379 193.852 248.28C187.277 230.73 186.54 216.028 188.423 203.613C189.052 211.603 190.9 220.354 194.499 229.962C219.637 297.061 316.953 280.705 316.953 280.705C316.953 280.705 398.321 267.146 407.022 207.482C407.185 210.835 407.217 214.359 407.078 218.064Z" fill="#0E403F"/>
</g>
<path d="M290.353 302.741C282.354 302.741 273.071 302.242 263.354 300.722C226.177 294.905 200.861 276.71 190.144 248.104C176.157 210.784 187.898 185.425 195.666 168.644C198.307 162.942 200.586 158.017 201.213 154.075C204.499 133.29 224.682 91.7844 277.536 83.481C290.854 81.3907 303.616 81.7225 315.466 84.466C355.988 93.8628 372.492 127.349 374.24 131.137C375.931 134.794 379.26 138.794 383.116 143.424C392.357 154.522 405.012 169.721 408.725 196.134C409.637 202.648 409.967 209.621 409.703 216.858V216.86C408.654 245.174 392.045 268.717 361.67 284.944C339.07 297.019 317.123 300.773 316.199 300.927C315.543 301.037 305.141 302.741 290.353 302.741ZM294.451 88.6702C289.273 88.6702 283.964 89.095 278.55 89.9446C229.416 97.6641 210.704 135.938 207.675 155.099C206.906 159.941 204.449 165.249 201.604 171.393C193.855 188.128 183.243 211.048 196.27 245.807C206.251 272.447 229.163 288.747 264.367 294.256C291.005 298.425 314.881 294.51 315.118 294.471C315.338 294.434 337.068 290.702 358.73 279.095C387.245 263.815 402.194 242.794 403.163 216.616V216.618C403.414 209.763 403.104 203.176 402.244 197.041C398.79 172.473 387.31 158.686 378.086 147.608C373.934 142.624 370.349 138.318 368.298 133.879C362.452 121.214 344.435 97.8977 313.987 90.8383C307.744 89.3946 301.211 88.6702 294.451 88.6702ZM406.433 216.74H406.442H406.433Z" fill="#0E403F"/>
<path d="M284.799 198.931L309.169 196.183C311.926 195.871 313.742 198.979 312.119 201.228L301.229 216.317C300.111 217.867 297.89 218.096 296.48 216.804L282.998 204.464C280.975 202.613 282.074 199.239 284.799 198.931Z" fill="#0E403F"/>
<path d="M298.914 209.369C300.481 212.812 300.813 216.803 300.163 220.65C299.503 224.505 297.816 228.22 295.395 231.368C292.977 234.53 289.785 237.07 286.269 238.89C282.752 240.734 278.916 241.835 274.989 242.38C271.125 242.83 267.068 242.603 263.231 241.576C259.382 240.57 255.737 238.72 252.668 236.18C251.934 235.506 251.196 234.839 250.48 234.154C249.818 233.413 249.168 232.66 248.544 231.895C247.978 231.079 247.379 230.292 246.86 229.454C246.386 228.586 245.912 227.721 245.512 226.825C243.982 223.212 243.449 219.172 244.438 215.442C244.521 215.13 244.84 214.944 245.152 215.027C245.313 215.069 245.44 215.176 245.514 215.31L245.521 215.322C247.3 218.581 248.916 221.376 250.781 223.923C251.248 224.554 251.756 225.153 252.199 225.783L253.709 227.536C254.251 228.083 254.83 228.592 255.361 229.139L257.121 230.607C259.548 232.458 262.268 233.905 265.176 234.85C268.094 235.781 271.177 236.149 274.307 235.831C277.348 235.483 280.359 234.52 282.989 232.935C285.63 231.363 287.91 229.281 289.88 226.956C291.853 224.62 293.481 221.987 294.788 219.091C296.111 216.19 297.051 213.035 297.829 209.488L297.831 209.481C297.899 209.171 298.205 208.975 298.515 209.042C298.698 209.085 298.841 209.212 298.914 209.369Z" fill="#0E403F"/>
<path d="M352.308 203.4C353.889 206.896 354.219 210.955 353.535 214.863C353.325 215.828 353.083 216.798 352.822 217.764C352.469 218.693 352.144 219.648 351.729 220.562C351.262 221.447 350.822 222.356 350.312 223.226C349.737 224.05 349.2 224.91 348.574 225.702C346.068 228.877 342.774 231.394 339.172 233.176C337.371 234.076 335.486 234.789 333.562 235.339C332.593 235.571 331.619 235.899 330.659 236.024L329.212 236.27L328.487 236.392C328.127 236.429 327.755 236.456 327.387 236.475L327.685 236.461C327.408 236.48 327.078 236.507 326.844 236.512L326.145 236.535L324.745 236.586C324.51 236.591 324.28 236.607 324.043 236.605L323.315 236.563L321.856 236.475C319.915 236.315 317.986 235.962 316.1 235.43C312.333 234.371 308.775 232.504 305.793 229.962C305.053 229.322 304.364 228.621 303.657 227.951C303.004 227.223 302.396 226.457 301.773 225.71C301.216 224.91 300.653 224.116 300.136 223.297C299.676 222.44 299.239 221.572 298.835 220.699C297.357 217.133 296.858 213.159 297.831 209.489C297.914 209.176 298.234 208.992 298.547 209.075C298.708 209.117 298.835 209.224 298.909 209.359L298.914 209.369C300.663 212.576 302.257 215.33 304.087 217.844C304.561 218.46 305.043 219.059 305.478 219.68C305.998 220.245 306.463 220.841 306.959 221.413L308.58 222.995C309.161 223.476 309.709 223.991 310.3 224.453C312.676 226.284 315.327 227.748 318.17 228.716C319.593 229.193 321.064 229.54 322.56 229.74L323.688 229.855L324.253 229.914C324.447 229.923 324.649 229.916 324.847 229.918L326.04 229.916L326.638 229.914L327.091 229.896L327.37 229.884L327.389 229.882C327.467 229.867 327.54 229.864 327.624 229.865L328.222 229.772L329.418 229.589C330.239 229.515 330.952 229.217 331.718 229.034C333.221 228.596 334.658 227.955 336.016 227.191C338.732 225.649 341.075 223.561 343.097 221.217C343.617 220.64 344.055 219.998 344.549 219.394C345.016 218.771 345.428 218.108 345.881 217.463L347.066 215.415C347.411 214.704 347.755 213.986 348.132 213.265C349.476 210.322 350.429 207.127 351.225 203.523L351.226 203.515C351.294 203.205 351.6 203.01 351.91 203.078C352.091 203.115 352.235 203.241 352.308 203.4Z" fill="#0E403F"/>
<path d="M326.847 233.21L318.522 273.576L293.172 275.211L276.742 238.78C290.399 236.178 299.943 223.462 298.373 209.43C299.975 223.781 312.586 234.191 326.847 233.21Z" fill="#0E403F"/>
<path d="M293.171 278.482C291.892 278.482 290.722 277.734 290.191 276.556L273.762 240.125C273.35 239.211 273.379 238.16 273.841 237.272C274.303 236.383 275.148 235.755 276.131 235.567C288.136 233.281 296.477 221.97 295.124 209.811C295.124 209.806 295.123 209.801 295.123 209.794C294.923 207.998 296.214 206.38 298.01 206.18C299.801 205.977 301.424 207.272 301.624 209.068C301.624 209.073 301.625 209.08 301.625 209.085C303.037 221.653 314.019 230.823 326.623 229.948C327.646 229.882 328.639 230.29 329.311 231.06C329.985 231.83 330.257 232.871 330.051 233.873L321.725 274.239C321.428 275.683 320.202 276.747 318.733 276.842L293.383 278.477C293.312 278.479 293.241 278.482 293.171 278.482ZM281.312 240.953L295.223 271.8L315.824 270.472L322.836 236.471C313.315 235.803 304.899 230.676 299.86 222.992C296.71 231.29 289.976 238.028 281.312 240.953Z" fill="#0E403F"/>
<path d="M308.196 290.978C301.255 291.885 294.891 286.996 293.984 280.053L291.756 263.025C290.849 256.084 295.739 249.72 302.681 248.813C309.622 247.906 315.986 252.795 316.893 259.738L319.121 276.766C320.028 283.707 315.137 290.069 308.196 290.978Z" fill="#FF48A0"/>
<path d="M306.52 294.358C303.027 294.358 299.65 293.216 296.834 291.051C293.457 288.455 291.293 284.699 290.741 280.476L288.514 263.448C287.373 254.73 293.539 246.707 302.257 245.568C310.973 244.431 318.997 250.593 320.136 259.311L322.364 276.34C323.504 285.058 317.339 293.08 308.621 294.219C307.918 294.314 307.216 294.358 306.52 294.358ZM308.196 290.978H308.204H308.196ZM304.332 251.976C303.927 251.976 303.518 252.002 303.106 252.056C297.965 252.729 294.329 257.46 295.001 262.6L297.228 279.628C297.553 282.12 298.831 284.335 300.821 285.865C302.814 287.395 305.281 288.06 307.773 287.734C312.914 287.06 316.55 282.329 315.878 277.189L313.651 260.161C313.031 255.432 308.979 251.976 304.332 251.976Z" fill="#0E403F"/>
<path d="M286.002 461.425C285.977 460.707 286.017 459.839 286.063 459.04C286.095 458.222 286.158 457.405 286.222 456.584C286.341 454.944 286.518 453.292 286.62 451.625C286.732 449.958 286.796 448.276 286.796 446.573C286.843 444.858 286.735 443.152 286.71 441.358V441.341C286.706 441.135 286.872 440.966 287.079 440.962C287.214 440.96 287.334 441.032 287.402 441.138C288.36 442.673 289.169 444.325 289.775 446.041C290.393 447.758 290.87 449.531 291.19 451.33C291.516 453.13 291.755 454.956 291.738 456.785C291.735 457.701 291.692 458.617 291.574 459.529C291.461 460.458 291.31 461.32 291.005 462.315C290.594 463.662 289.167 464.422 287.82 464.009C286.752 463.682 286.055 462.719 286.016 461.663L286.002 461.425Z" fill="#0E403F"/>
<path d="M301.976 459.199C301.905 458.536 301.889 457.713 301.891 456.962C301.872 456.19 301.893 455.416 301.908 454.64L302.072 449.933C302.106 448.35 302.133 446.749 302.096 445.133C302.104 443.505 302.004 441.878 301.998 440.175V440.164C301.996 439.955 302.165 439.786 302.372 439.786C302.504 439.786 302.62 439.856 302.688 439.957C304.567 442.834 305.819 446.086 306.622 449.432C307.024 451.107 307.337 452.813 307.424 454.54C307.473 455.401 307.478 456.269 307.417 457.136C307.356 458.023 307.26 458.839 307.018 459.807C306.674 461.174 305.286 462.004 303.92 461.66C302.856 461.393 302.118 460.492 302.004 459.461L301.976 459.199Z" fill="#0E403F"/>
<path d="M364.979 423.956C364.512 423.167 364.234 422.509 363.97 421.764C363.708 421.042 363.508 420.302 363.356 419.559C363.034 418.071 362.926 416.55 362.894 415.04C362.85 412.019 363.173 408.996 364.119 406.112C364.185 405.912 364.4 405.804 364.6 405.868C364.717 405.907 364.803 405.995 364.84 406.104L364.844 406.115C365.336 407.539 365.712 408.927 366.15 410.287C366.548 411.652 366.993 412.984 367.411 414.302C367.834 415.619 368.318 416.902 368.701 418.191C368.894 418.836 369.092 419.474 369.249 420.121C369.415 420.742 369.591 421.444 369.657 421.984L369.701 422.345C369.872 423.743 368.877 425.014 367.479 425.185C366.446 425.312 365.48 424.797 364.979 423.956Z" fill="#0E403F"/>
<path d="M382.564 421.83C382.208 421.424 381.985 421.13 381.743 420.776C381.51 420.431 381.298 420.089 381.103 419.73C380.709 419.026 380.379 418.291 380.106 417.543C379.546 416.049 379.218 414.485 379.013 412.921C378.817 411.355 378.73 409.785 378.829 408.222C378.911 406.664 379.16 405.12 379.583 403.626C379.641 403.424 379.851 403.307 380.052 403.365C380.172 403.399 380.262 403.487 380.303 403.595L380.308 403.61C380.849 405.051 381.284 406.442 381.821 407.788C382.305 409.14 382.875 410.438 383.427 411.711C383.984 412.984 384.634 414.195 385.196 415.414C385.478 416.025 385.775 416.621 386.035 417.23C386.181 417.523 386.299 417.838 386.435 418.127C386.55 418.415 386.705 418.752 386.751 418.958L386.902 419.628C387.205 420.981 386.353 422.323 385.001 422.626C384.075 422.836 383.151 422.497 382.564 421.83Z" fill="#0E403F"/>
<path d="M270.086 187.151C271.253 177.599 266.925 169.211 260.418 168.416C253.911 167.621 247.69 174.72 246.523 184.272C245.355 193.823 249.684 202.212 256.191 203.007C262.698 203.802 268.919 196.703 270.086 187.151Z" fill="#0E403F"/>
<path d="M265.018 183.299C265.359 180.509 264.095 178.059 262.195 177.827C260.294 177.594 258.478 179.668 258.137 182.458C257.796 185.248 259.06 187.698 260.96 187.93C262.86 188.162 264.677 186.089 265.018 183.299Z" fill="white"/>
<path d="M333.532 193.32C339.902 191.771 343.222 182.934 340.948 173.584C338.674 164.233 331.667 157.908 325.297 159.457C318.928 161.006 315.607 169.842 317.881 179.193C320.155 188.544 327.162 194.869 333.532 193.32Z" fill="#0E403F"/>
<path d="M327.036 178.9C328.897 178.448 329.866 175.867 329.202 173.136C328.538 170.405 326.491 168.557 324.631 169.01C322.771 169.462 321.801 172.043 322.466 174.774C323.13 177.505 325.176 179.353 327.036 178.9Z" fill="white"/>
<path d="M159.875 196.704C159.875 196.704 190.132 154.18 205.671 162.358C221.208 170.537 202.399 244.954 202.399 244.954L159.875 196.704Z" fill="#D5B3F5"/>
<path d="M102.017 186.654L45.198 216.797C45.198 216.797 47.0868 200.18 50.8729 182.238C55.199 161.745 61.9944 139.518 71.2845 138.357C80.0347 137.268 87.7373 149.446 93.2498 161.844C98.7132 174.133 102.017 186.654 102.017 186.654Z" fill="#D5B3F5"/>
<path d="M200.158 446.084C133.068 438.969 74.8187 402.252 38.7295 349.236C40.3492 346.978 42.0096 344.615 43.6682 342.163C47.8148 336.055 52.0021 329.398 55.8779 322.447C59.9585 315.112 63.6956 307.45 66.6473 299.745L167.234 308.741L172.41 331.705L180.317 366.804C180.317 366.804 195.16 381.647 200.394 407.757C202.587 418.657 203.102 431.52 200.158 446.084Z" fill="#D5B3F5"/>
<g opacity="0.2">
<path d="M200.158 446.084C133.068 438.969 74.8187 402.251 38.7295 349.236C40.3492 346.978 42.0096 344.615 43.6682 342.163C44.0355 342.89 44.4366 343.61 44.9037 344.297C50.9629 353.252 59.9992 360.252 70.3369 363.539C80.0113 366.614 90.8957 366.761 99.2296 372.558C107.711 378.455 111.913 389.175 120.516 394.908C131.516 402.226 145.99 399.381 159.156 398.376C160.898 398.237 162.763 398.171 164.284 399.037C165.748 399.872 166.623 401.426 167.588 402.815C174.637 412.906 190.584 415.221 200.209 407.542C200.275 407.615 200.34 407.681 200.397 407.755C202.587 418.657 203.102 431.52 200.158 446.084Z" fill="#0E403F"/>
</g>
<path d="M200.162 449.356C200.047 449.356 199.93 449.349 199.813 449.337C133.44 442.298 73.7423 406.483 36.025 351.075C35.2515 349.94 35.2701 348.442 36.0724 347.327C42.5648 338.285 48.2668 329.379 53.0211 320.851C57.3606 313.05 60.9183 305.554 63.5941 298.572C64.1171 297.207 65.4796 296.355 66.9402 296.486L167.527 305.481C168.942 305.608 170.115 306.634 170.426 308.02L183.311 365.199C187.929 370.189 212.859 399.747 203.364 446.732C203.054 448.272 201.7 449.356 200.162 449.356ZM42.7239 349.27C78.8418 401.189 134.999 435 197.503 442.494C205.316 397.059 178.286 369.395 178.007 369.116C177.569 368.677 177.266 368.126 177.129 367.521L164.569 311.786L68.7968 303.22C66.1345 309.821 62.7563 316.811 58.7383 324.034C54.1906 332.191 48.8101 340.668 42.7239 349.27Z" fill="#0E403F"/>
<path d="M172.411 331.703C159.237 344.828 134.139 351.461 106.874 347.281C85.163 343.952 66.8112 334.491 55.8777 322.445C59.9583 315.11 63.6953 307.448 66.6471 299.744L167.234 308.739L172.411 331.703Z" fill="#FF0068"/>
<path d="M123.19 351.813C117.708 351.813 112.077 351.389 106.38 350.515C84.6468 347.183 65.3556 337.754 53.4574 324.645C52.5146 323.606 52.3386 322.083 53.0207 320.856C57.362 313.053 60.9196 305.556 63.5954 298.574C64.1184 297.208 65.4809 296.357 66.9415 296.487L167.528 305.483C168.943 305.61 170.116 306.635 170.428 308.022L175.603 330.984C175.851 332.081 175.517 333.226 174.722 334.02C163.228 345.47 144.343 351.813 123.19 351.813ZM59.8939 321.929C70.9053 333.072 88.0521 341.086 107.37 344.048C131.825 347.795 155.667 342.53 168.811 330.611L164.567 311.786L68.7948 303.22C66.3931 309.178 63.4076 315.452 59.8939 321.929Z" fill="#0E403F"/>
<path d="M109.991 368.437C117.669 368.437 123.893 362.213 123.893 354.535C123.893 346.857 117.669 340.633 109.991 340.633C102.313 340.633 96.0884 346.857 96.0884 354.535C96.0884 362.213 102.313 368.437 109.991 368.437Z" fill="#FFB012"/>
<g opacity="0.6">
<path d="M123.893 354.535C123.893 356.309 123.558 358.01 122.945 359.572C122.307 352.49 116.354 346.946 109.109 346.946C103.212 346.946 98.1668 350.625 96.1544 355.811C96.1053 355.395 96.0884 354.968 96.0884 354.535C96.0884 346.856 102.312 340.633 109.991 340.633C117.661 340.633 123.893 346.856 123.893 354.535Z" fill="white"/>
</g>
<g opacity="0.2">
<path d="M123.893 354.535C123.893 362.214 117.669 368.437 109.991 368.437C102.312 368.437 96.0884 362.214 96.0884 354.535C96.0884 352.572 96.498 350.7 97.2325 348.999C98.7947 354.968 104.224 359.369 110.684 359.369C116.4 359.369 121.307 355.926 123.443 350.994C123.737 352.123 123.893 353.316 123.893 354.535Z" fill="#0E403F"/>
</g>
<path d="M109.99 371.709C100.521 371.709 92.8167 364.004 92.8167 354.535C92.8167 345.065 100.521 337.363 109.99 337.363C119.46 337.363 127.164 345.067 127.164 354.535C127.164 364.004 119.46 371.709 109.99 371.709ZM109.99 343.904C104.128 343.904 99.3599 348.674 99.3599 354.535C99.3599 360.398 104.129 365.167 109.99 365.167C115.852 365.167 120.621 360.398 120.621 354.535C120.621 348.672 115.853 343.904 109.99 343.904Z" fill="#0E403F"/>
<path d="M110.686 414.158C109.672 421.412 106.663 427.971 100.995 432.222C81.3684 446.942 70.3774 410.167 75.8729 391.35L66.158 382.239C66.158 382.239 66.3374 382.011 66.6894 381.618C68.8981 379.164 77.8921 370.407 91.9991 372.524C103.637 374.268 113.196 396.299 110.686 414.158Z" fill="#D5B3F5"/>
<g opacity="0.2">
<path d="M110.686 414.158C109.672 421.412 106.663 427.971 100.995 432.222C81.3684 446.942 70.3774 410.167 75.8729 391.35L66.158 382.239C66.158 382.239 66.3374 382.011 66.6894 381.618C71.7601 381.864 78.2932 383.605 84.1323 389.583C84.1323 389.583 78.8737 419.039 91.884 423.242C99.5222 425.715 106.351 419.613 110.686 414.158Z" fill="#0E403F"/>
</g>
<g opacity="0.6">
<path d="M104.275 429.181C111.48 410.69 100.856 382.019 87.5105 380.017C79.153 378.766 72.5945 381.325 68.1703 384.138L66.158 382.25C66.158 382.25 75.6444 370.072 91.9991 372.526C107.342 374.823 119.086 412.393 104.275 429.181Z" fill="white"/>
</g>
<path d="M92.2243 438.568C89.4909 438.568 86.8523 437.727 84.41 436.036C73.8133 428.699 69.2926 406.542 72.5642 392.308L64.1305 384.408C63.0117 383.36 62.878 381.634 63.8191 380.425C64.2507 379.872 74.5732 366.922 92.4375 369.598C100.988 370.881 108.802 380.781 112.348 394.822C115.692 408.069 114.933 425.474 102.77 434.595C99.2465 437.237 95.6618 438.568 92.2243 438.568ZM70.3504 382.114L77.899 389.186C78.7131 389.949 79.0296 391.105 78.7181 392.178C74.932 405.146 79.6778 425.551 87.7849 431.165C91.1733 433.512 94.9137 433.084 99.2194 429.853C109.066 422.467 109.354 407.146 106.607 396.269C103.74 384.912 97.5523 376.353 91.5625 375.454C80.9319 373.86 73.5916 379.102 70.3504 382.114Z" fill="#0E403F"/>
<path d="M180.483 443.108L157.897 437.417C157.897 437.417 149.245 453.485 135.342 446.126C129.977 443.288 126.511 436.027 125.341 427.62C122.887 410.169 130.28 387.77 150.881 389.7C166.909 391.205 174.409 410.905 177.819 425.943C179.967 435.462 180.483 443.108 180.483 443.108Z" fill="#D5B3F5"/>
<g opacity="0.2">
<path d="M180.483 443.109L157.897 437.417C157.897 437.417 149.245 453.485 135.343 446.126C129.977 443.288 126.511 436.027 125.342 427.62C125.579 427.964 133.037 438.701 141.828 438.661C150.766 438.62 160.204 431.53 161.79 423.245C161.79 423.245 166.745 435.626 177.809 425.952L177.818 425.943C179.967 435.462 180.483 443.109 180.483 443.109Z" fill="#0E403F"/>
</g>
<g opacity="0.6">
<path d="M180.483 443.109L179.437 442.846C177.139 428.193 170.213 399.93 150.881 398.114C134.379 396.568 126.348 410.633 125.064 425.271C123.576 408.221 131.197 387.85 150.881 389.699C177.047 392.153 180.483 443.109 180.483 443.109Z" fill="white"/>
</g>
<path d="M142.549 451.026C139.878 451.026 137.001 450.356 133.956 448.743C122.52 442.689 119.465 422.005 123.877 407.227C128.131 392.987 138.071 385.525 151.155 386.75C179.508 389.409 183.287 440.724 183.435 442.907C183.499 443.853 183.105 444.772 182.377 445.38C181.649 445.987 180.676 446.209 179.755 445.979L159.291 440.822C156.13 445.514 150.199 451.026 142.549 451.026ZM148.432 392.543C136.324 392.543 131.426 402.654 129.554 408.922C125.473 422.587 128.96 439.393 136.728 443.506C147.831 449.386 154.997 436.552 155.297 436.003C155.943 434.817 157.314 434.213 158.624 434.543L177.101 439.199C175.654 427.451 169.881 394.454 150.604 392.647C149.855 392.577 149.131 392.543 148.432 392.543Z" fill="#0E403F"/>
<path d="M154.244 437.131C154.679 436.587 155.165 435.871 155.603 435.21C156.052 434.534 156.488 433.84 156.901 433.136C157.729 431.727 158.516 430.276 159.186 428.775C160.522 425.776 161.571 422.585 161.512 419.139C162.085 420.756 162.382 422.507 162.503 424.276C162.613 426.048 162.522 427.829 162.349 429.608C162.17 431.386 161.857 433.145 161.481 434.9C161.293 435.778 161.078 436.65 160.841 437.522C160.598 438.41 160.369 439.231 160.026 440.192L159.978 440.324C159.36 442.056 157.456 442.958 155.727 442.34C153.995 441.722 153.093 439.818 153.711 438.089C153.836 437.737 154.024 437.408 154.244 437.131Z" fill="#0E403F"/>
<path d="M202.399 248.224C201.471 248.224 200.574 247.83 199.945 247.115L157.421 198.867C156.415 197.728 156.329 196.046 157.209 194.809C157.524 194.367 165.037 183.85 174.62 174.165C188.366 160.27 199.327 155.321 207.194 159.464C212.237 162.118 218.336 169.953 213.101 207.179C210.349 226.755 205.618 245.568 205.571 245.756C205.273 246.933 204.349 247.848 203.169 248.134C202.913 248.195 202.654 248.224 202.399 248.224ZM164.06 196.506L200.673 238.047C202.275 230.999 204.867 218.763 206.628 206.221C211.442 171.953 205.946 166.2 204.147 165.253C195.554 160.732 176.119 180.189 164.06 196.506Z" fill="#0E403F"/>
<path d="M195.038 222.874C194.136 222.874 193.258 222.499 192.632 221.817L173.823 201.374C172.802 200.263 172.672 198.6 173.508 197.344C173.664 197.112 177.354 191.594 181.932 186.288C189.086 177.997 194.395 174.876 198.642 176.469C203.303 178.215 204.263 185.314 201.956 200.964C200.52 210.706 198.315 219.974 198.22 220.364C197.939 221.54 197.032 222.464 195.863 222.769C195.59 222.838 195.313 222.874 195.038 222.874ZM180.4 198.859L193.217 212.79C196.23 198.464 197.484 185.623 196.064 182.6C193.488 182.937 186.468 190.229 180.4 198.859Z" fill="#0E403F"/>
<path d="M202.399 248.224C201.471 248.224 200.574 247.83 199.945 247.115L157.421 198.867C156.415 197.728 156.329 196.046 157.209 194.809C157.524 194.367 165.037 183.85 174.62 174.165C188.366 160.27 199.327 155.321 207.194 159.464C212.237 162.118 218.336 169.953 213.101 207.179C210.349 226.755 205.618 245.568 205.571 245.756C205.273 246.933 204.349 247.848 203.169 248.134C202.913 248.195 202.654 248.224 202.399 248.224ZM164.06 196.506L200.673 238.047C202.275 230.999 204.867 218.763 206.628 206.221C211.442 171.953 205.946 166.2 204.147 165.253C195.554 160.732 176.119 180.189 164.06 196.506Z" fill="#0E403F"/>
<path d="M45.203 220.066C44.5581 220.066 43.915 219.875 43.3615 219.499C42.3579 218.815 41.8163 217.632 41.9534 216.427C41.9754 216.234 44.1892 196.961 48.522 177.674C56.7611 140.996 65.232 135.818 70.8867 135.114C79.708 134.016 88.2179 142.512 96.176 160.365C101.724 172.809 105.043 185.298 105.182 185.825C105.569 187.294 104.894 188.836 103.552 189.548L46.7364 219.687C46.254 219.941 45.7276 220.066 45.203 220.066ZM72.3642 141.564C72.1391 141.564 71.9157 141.578 71.6923 141.607C69.6748 141.857 62.502 145.301 54.9128 179.063C52.1355 191.42 50.2415 203.784 49.2548 210.943L98.1715 184.995C92.7724 165.923 81.8473 141.564 72.3642 141.564Z" fill="#0E403F"/>
<path d="M61.0345 198.943C60.3694 198.943 59.7093 198.742 59.1474 198.344C58.1607 197.647 57.6377 196.46 57.79 195.262C57.8408 194.864 59.0475 185.415 61.1411 175.793C64.5041 160.348 67.9044 154.043 72.8753 154.043C72.8786 154.043 72.882 154.043 72.8871 154.043C77.423 154.051 81.2887 158.845 85.0562 169.127C87.4663 175.707 88.9726 182.172 89.0352 182.443C89.3754 183.912 88.6663 185.424 87.319 186.102L62.5053 198.595C62.0399 198.828 61.5372 198.943 61.0345 198.943ZM73.1139 160.708C70.7207 163.083 67.3746 175.512 65.1439 189.941L82.052 181.429C79.4371 171.278 75.4698 162.033 73.1139 160.708Z" fill="#0E403F"/>
<path d="M45.203 220.066C44.5581 220.066 43.915 219.875 43.3615 219.499C42.3579 218.815 41.8163 217.632 41.9534 216.427C41.9754 216.234 44.1892 196.961 48.522 177.674C56.7611 140.996 65.232 135.818 70.8867 135.114C79.708 134.016 88.2179 142.512 96.176 160.365C101.724 172.809 105.043 185.298 105.182 185.825C105.569 187.294 104.894 188.836 103.552 189.548L46.7364 219.687C46.254 219.941 45.7276 220.066 45.203 220.066ZM72.3642 141.564C72.1391 141.564 71.9157 141.578 71.6923 141.607C69.6748 141.857 62.502 145.301 54.9128 179.063C52.1355 191.42 50.2415 203.784 49.2548 210.943L98.1715 184.995C92.7724 165.923 81.8473 141.564 72.3642 141.564Z" fill="#0E403F"/>
<path d="M176.229 199.158C176.229 199.158 190.949 177.078 197.492 179.532C204.034 181.986 195.038 219.604 195.038 219.604L176.229 199.158Z" fill="#FA509C"/>
<path d="M85.8484 183.181C85.8484 183.181 79.8671 157.327 72.8805 157.315C65.8938 157.301 61.0347 195.674 61.0347 195.674L85.8484 183.181Z" fill="#FA509C"/>
<path d="M195.039 221.718C194.455 221.718 193.888 221.476 193.482 221.034L174.673 200.59C174.013 199.873 173.928 198.796 174.47 197.984C178.141 192.476 190.708 174.727 198.234 177.55C201.047 178.605 203.552 182.191 200.812 200.795C199.383 210.486 197.119 220 197.097 220.095C196.916 220.854 196.328 221.454 195.572 221.65C195.396 221.696 195.216 221.718 195.039 221.718ZM178.923 198.959L193.861 215.195C194.611 211.717 195.694 206.346 196.526 200.851C199.162 183.45 196.743 181.512 196.718 181.495C193.957 180.456 185.368 189.626 178.923 198.959Z" fill="#0E403F"/>
<path d="M61.0346 197.787C60.6047 197.787 60.1765 197.657 59.8143 197.4C59.1763 196.948 58.8378 196.183 58.9359 195.406C58.9478 195.31 60.1867 185.61 62.2702 176.037C66.2645 157.684 69.8712 155.197 72.8737 155.197C72.8771 155.197 72.8804 155.197 72.8838 155.197C80.9249 155.212 86.4171 176.254 87.9098 182.704C88.1299 183.655 87.6712 184.632 86.7996 185.07L61.9858 197.562C61.6862 197.713 61.3596 197.787 61.0346 197.787ZM72.8754 159.429C72.8821 159.432 69.9355 160.393 66.2594 177.603C65.0983 183.037 64.2182 188.445 63.6919 191.963L83.3976 182.044C80.6592 171.037 75.8542 159.435 72.8754 159.429Z" fill="#0E403F"/>
<g opacity="0.2">
<path d="M102.017 186.654L45.198 216.798C45.198 216.798 47.0868 200.181 50.8729 182.238C60.9806 174.788 77.2455 164.533 93.2498 161.844C98.7132 174.133 102.017 186.654 102.017 186.654Z" fill="#0E403F"/>
</g>
<g opacity="0.2">
<path d="M161.097 194.341L203.934 242.32C203.934 242.32 207.925 226.079 210.598 207.937C203.701 197.444 192.002 182.184 177.924 174.111C168.537 183.745 161.097 194.341 161.097 194.341Z" fill="#0E403F"/>
</g>
<path d="M207.984 273.315C200.627 322.905 156.863 340.963 107.272 333.605C57.6821 326.248 21.0462 296.262 28.4035 246.672C35.7608 197.082 81.9254 162.846 131.516 170.203C181.106 177.56 215.342 223.725 207.984 273.315Z" fill="#D5B3F5"/>
<g opacity="0.6">
<path d="M206.422 273.068C206.194 274.605 205.932 276.118 205.629 277.599C210.307 229.767 176.663 186.172 128.594 179.041C121.366 177.97 114.21 177.782 107.233 178.395V178.403C107.487 180.717 103.872 183.015 99.1535 183.531C95.2861 183.956 91.8842 183.057 90.6486 181.446C58.7467 190.442 33.1747 216.635 26.2981 250.859C26.4369 249.395 26.6247 247.916 26.8465 246.418C34.1987 196.836 80.3616 162.597 129.952 169.956C179.542 177.306 213.783 223.478 206.422 273.068Z" fill="white"/>
</g>
<g opacity="0.2">
<path d="M210.23 273.564C202.878 323.154 159.112 341.21 109.522 333.859C61.854 326.786 26.1575 298.809 29.9927 252.606C33.305 291 66.5473 314.372 109.522 320.751C159.112 328.103 202.878 310.046 210.23 260.457C210.574 258.167 210.819 255.886 210.99 253.613C211.464 260.136 211.227 266.816 210.23 273.564Z" fill="#0E403F"/>
</g>
<path d="M128.122 338.471C121.264 338.471 114.137 337.93 106.793 336.841C80.4123 332.927 58.7517 323.049 44.1573 308.275C28.1191 292.039 21.5522 270.572 25.1691 246.193C32.7803 194.898 80.7017 159.361 131.996 166.969C183.291 174.58 218.83 222.503 211.221 273.796C207.604 298.175 195.088 316.812 175.025 327.692C161.852 334.834 145.897 338.471 128.122 338.471ZM118.138 172.484C75.5193 172.484 38.0778 203.757 31.6395 247.151C23.942 299.039 65.9093 324.161 107.753 330.368C149.595 336.577 197.051 324.721 204.748 272.834C211.83 225.108 178.762 180.52 131.037 173.439C126.706 172.796 122.393 172.484 118.138 172.484ZM207.985 273.315H207.993H207.985Z" fill="#0E403F"/>
<path d="M111.527 255.095L126.41 256.333C128.092 256.473 128.811 258.543 127.576 259.696L119.289 267.422C118.438 268.216 117.084 268.089 116.395 267.153L109.799 258.189C108.809 256.844 109.864 254.958 111.527 255.095Z" fill="#0E403F"/>
<path d="M86.3935 262.319C87.3903 264.473 88.2535 266.208 89.2284 267.765C90.188 269.316 91.2002 270.687 92.3494 271.92C93.4901 273.151 94.7392 274.288 96.1998 275.16C97.6706 276.025 99.2988 276.565 101.084 276.668L101.621 276.671L102.308 276.656C102.782 276.67 103.18 276.571 103.606 276.529C104.444 276.402 105.263 276.177 106.05 275.883C107.617 275.278 109.075 274.442 110.391 273.408C111.732 272.389 112.886 271.152 114.012 269.776C115.176 268.402 116.332 266.912 117.903 264.976L117.918 264.958C118.141 264.682 118.548 264.639 118.823 264.863C118.893 264.92 118.95 264.991 118.989 265.066C120.198 267.398 120.157 270.104 119.357 272.537C118.515 274.965 116.936 277.13 115.002 278.866C113.045 280.589 110.686 281.864 108.174 282.553C106.922 282.908 105.637 283.137 104.349 283.233C103.709 283.269 103.044 283.345 102.445 283.301L101.528 283.272L101.051 283.26L100.462 283.221C97.9786 282.957 95.4128 282.299 93.0805 281.197C90.7364 280.105 88.5734 278.523 86.9486 276.482C85.3356 274.442 84.2355 271.995 83.8987 269.465C83.5704 266.943 83.9579 264.34 85.3069 262.228C85.4897 261.941 85.8705 261.857 86.1565 262.04C86.2598 262.106 86.3359 262.197 86.385 262.3L86.3935 262.319Z" fill="#0E403F"/>
<path d="M118.989 265.067C119.971 267.188 120.819 268.899 121.78 270.438C122.721 271.97 123.715 273.324 124.839 274.544C125.951 275.766 127.174 276.885 128.591 277.771C130.006 278.65 131.634 279.229 133.323 279.369L133.577 279.406C133.592 279.398 133.599 279.398 133.616 279.403L133.951 279.408L134.621 279.416C135.075 279.444 135.491 279.344 135.925 279.315C136.781 279.208 137.617 278.992 138.423 278.709C140.027 278.12 141.518 277.289 142.862 276.245C144.233 275.224 145.411 273.973 146.555 272.58C147.735 271.188 148.904 269.681 150.5 267.716L150.516 267.698C150.741 267.422 151.145 267.379 151.421 267.605C151.49 267.662 151.548 267.733 151.587 267.808C152.814 270.177 152.753 272.931 151.912 275.392C151.037 277.853 149.404 280.033 147.415 281.771C145.401 283.489 142.982 284.744 140.42 285.394C139.142 285.733 137.834 285.934 136.525 286.012C135.874 286.027 135.207 286.102 134.574 286.039L133.614 285.992L133.135 285.968C132.883 285.943 132.621 285.907 132.365 285.867L132.619 285.904C130.118 285.584 127.647 284.902 125.353 283.778C123.062 282.666 120.966 281.065 119.397 279.034C117.842 277.003 116.789 274.584 116.479 272.093C116.182 269.608 116.574 267.054 117.904 264.976C118.087 264.69 118.468 264.605 118.756 264.79C118.859 264.856 118.935 264.947 118.983 265.051L118.989 265.067Z" fill="#0E403F"/>
<path d="M114.591 317.615C114.198 317.615 113.805 317.594 113.411 317.554C107.164 316.914 102.058 311.3 99.3987 302.154C97.5928 295.932 97.0478 288.629 97.8213 281.029C97.8737 280.534 97.9245 280.056 97.9838 279.572C98.1936 277.861 99.6949 276.602 101.418 276.705C108.531 277.108 114.577 271.87 115.183 264.763C115.183 264.758 115.185 264.751 115.185 264.746C115.337 262.947 116.921 261.611 118.719 261.764C120.518 261.916 121.855 263.497 121.702 265.298C121.702 265.304 121.701 265.31 121.701 265.315C121.105 272.44 126.205 278.618 133.316 279.384C135.056 279.572 136.341 281.095 136.231 282.844C136.187 283.528 136.128 284.222 136.058 284.922C135.293 292.459 133.306 299.457 130.311 305.173C126.133 313.148 120.458 317.615 114.591 317.615ZM104.199 283.171C103.726 289.333 104.244 295.377 105.681 300.327C107.531 306.689 110.669 310.696 114.078 311.046C117.507 311.398 121.411 308.065 124.52 302.135C126.961 297.476 128.696 291.526 129.441 285.286C124.24 283.858 120.008 280.418 117.527 275.908C114.321 279.943 109.567 282.634 104.199 283.171Z" fill="#0E403F"/>
<path d="M114.59 317.615C114.198 317.615 113.805 317.594 113.411 317.554C107.164 316.914 102.057 311.3 99.3986 302.154C99.1616 301.341 99.2496 300.468 99.644 299.718C102.553 294.185 108.24 290.748 114.487 290.748C121.855 290.748 128.46 295.671 130.552 302.722C130.794 303.538 130.708 304.416 130.314 305.171C126.133 313.148 120.458 317.615 114.59 317.615ZM106.101 301.666C107.985 307.248 110.914 310.721 114.078 311.046C117.26 311.373 120.851 308.526 123.837 303.376C122.224 299.738 118.546 297.291 114.489 297.291C111.111 297.291 108 298.94 106.101 301.666Z" fill="#0E403F"/>
<path d="M128.122 338.471C121.264 338.471 114.137 337.93 106.793 336.841C80.4123 332.927 58.7517 323.049 44.1573 308.275C28.1191 292.039 21.5522 270.572 25.1691 246.193C32.7803 194.898 80.7017 159.361 131.996 166.969C183.291 174.58 218.83 222.503 211.221 273.796C207.604 298.175 195.088 316.812 175.025 327.692C161.852 334.834 145.897 338.471 128.122 338.471ZM118.138 172.484C75.5193 172.484 38.0778 203.757 31.6395 247.151C23.942 299.039 65.9093 324.161 107.753 330.368C149.595 336.577 197.051 324.721 204.748 272.834C211.83 225.108 178.762 180.52 131.037 173.439C126.706 172.796 122.393 172.484 118.138 172.484ZM207.985 273.315H207.993H207.985Z" fill="#0E403F"/>
<path d="M111.527 255.095L126.41 256.333C128.092 256.473 128.811 258.543 127.576 259.696L119.289 267.422C118.438 268.216 117.084 268.089 116.395 267.153L109.799 258.189C108.809 256.844 109.864 254.958 111.527 255.095Z" fill="#0E403F"/>
<path d="M132.97 282.636C132.929 283.282 132.871 283.935 132.805 284.599C132.061 291.926 130.099 298.533 127.417 303.653C123.769 310.613 118.79 314.815 113.743 314.301C108.721 313.786 104.715 308.724 102.538 301.241C100.919 295.664 100.323 288.745 101.074 281.361C101.124 280.896 101.173 280.437 101.23 279.972C110.046 280.479 117.7 273.872 118.445 265.023C117.695 273.894 124.17 281.688 132.97 282.636Z" fill="#0E403F"/>
<path d="M127.418 303.653C123.771 310.613 118.792 314.815 113.745 314.301C108.723 313.786 104.717 308.724 102.54 301.241C104.798 296.948 109.304 294.021 114.488 294.021C120.598 294.02 125.766 298.083 127.418 303.653Z" fill="#FF48A0"/>
<path d="M114.591 317.615C114.198 317.615 113.805 317.594 113.411 317.554C107.164 316.914 102.058 311.3 99.3987 302.154C97.5928 295.932 97.0478 288.629 97.8213 281.029C97.8737 280.534 97.9245 280.056 97.9838 279.572C98.1936 277.861 99.6949 276.602 101.418 276.705C108.531 277.108 114.577 271.87 115.183 264.763C115.183 264.758 115.185 264.751 115.185 264.746C115.337 262.947 116.921 261.611 118.719 261.764C120.518 261.916 121.855 263.497 121.702 265.298C121.702 265.304 121.701 265.31 121.701 265.315C121.105 272.44 126.205 278.618 133.316 279.384C135.056 279.572 136.341 281.095 136.231 282.844C136.187 283.528 136.128 284.222 136.058 284.922C135.293 292.459 133.306 299.457 130.311 305.173C126.133 313.148 120.458 317.615 114.591 317.615ZM104.199 283.171C103.726 289.333 104.244 295.377 105.681 300.327C107.531 306.689 110.669 310.696 114.078 311.046C117.507 311.398 121.411 308.065 124.52 302.135C126.961 297.476 128.696 291.526 129.441 285.286C124.24 283.858 120.008 280.418 117.527 275.908C114.321 279.943 109.567 282.634 104.199 283.171Z" fill="#0E403F"/>
<path d="M43.7512 254.767C41.1211 254.219 38.6754 253.567 36.245 252.929C33.8213 252.286 31.4332 251.665 29.0519 251.074C26.6705 250.46 24.2841 249.989 21.8621 249.5C19.4266 248.999 16.981 248.72 14.3119 248.226C16.7102 247.032 19.3928 246.399 22.0703 246.291C24.7445 246.196 27.4491 246.432 30.0268 247.104C32.6112 247.748 35.1059 248.701 37.4365 249.954C39.7502 251.225 41.9555 252.743 43.7512 254.767Z" fill="#0E403F"/>
<path d="M44.1404 273.476C41.4612 273.672 38.9309 273.72 36.4175 273.776C33.9092 273.825 31.445 273.884 28.9925 273.972C26.5333 274.036 24.1114 274.243 21.6471 274.437C19.1676 274.625 16.7388 275.031 14.0376 275.292C16.0144 273.484 18.4195 272.137 20.9633 271.296C23.5071 270.468 26.1745 269.951 28.8351 269.886C31.4974 269.795 34.158 270.023 36.7425 270.587C39.3185 271.173 41.8572 272.026 44.1404 273.476Z" fill="#0E403F"/>
<path d="M50.7531 290.345C48.3802 291.604 46.0835 292.669 43.8054 293.732C41.5306 294.786 39.2982 295.836 37.0895 296.905C34.8656 297.955 32.7313 299.121 30.5548 300.292C28.3613 301.463 26.3032 302.814 23.9354 304.141C25.0169 301.69 26.6756 299.488 28.6643 297.694C30.6597 295.91 32.8904 294.363 35.3006 293.232C37.6988 292.077 40.2274 291.213 42.8203 290.687C45.4115 290.179 48.0789 289.937 50.7531 290.345Z" fill="#0E403F"/>
<path d="M194.013 268.436C196.37 267.107 198.951 266.393 201.554 265.944C204.166 265.52 206.835 265.433 209.487 265.667C212.141 265.873 214.776 266.53 217.273 267.493C219.767 268.468 222.098 269.942 223.975 271.851C221.291 271.448 218.887 270.914 216.421 270.594C213.971 270.267 211.562 269.932 209.111 269.737C206.668 269.519 204.208 269.328 201.707 269.145C199.202 268.955 196.678 268.774 194.013 268.436Z" fill="#0E403F"/>
<path d="M187.542 285.995C190.174 285.367 192.851 285.389 195.478 285.677C198.105 285.989 200.696 286.638 203.182 287.595C205.677 288.524 208.03 289.881 210.164 291.494C212.293 293.119 214.128 295.177 215.407 297.53C212.938 296.402 210.775 295.228 208.492 294.241C206.227 293.253 204.003 292.268 201.7 291.405C199.41 290.521 197.1 289.66 194.744 288.796C192.388 287.925 190.011 287.055 187.542 285.995Z" fill="#0E403F"/>
<path d="M175.791 299.786C178.452 300.272 180.894 301.372 183.182 302.692C185.462 304.036 187.569 305.674 189.46 307.551C191.369 309.406 192.974 311.598 194.278 313.934C195.573 316.279 196.423 318.901 196.646 321.57C194.84 319.544 193.334 317.596 191.643 315.773C189.968 313.955 188.331 312.158 186.571 310.44C184.831 308.709 183.064 306.989 181.256 305.251C179.449 303.504 177.624 301.749 175.791 299.786Z" fill="#0E403F"/>
<path d="M134.192 447.441C134.034 447.182 133.975 447.082 133.889 446.918C133.813 446.766 133.743 446.627 133.677 446.478C133.56 446.19 133.445 445.903 133.364 445.617C133.188 445.041 133.086 444.469 133.015 443.897C132.877 442.753 132.968 441.621 133.11 440.519C133.246 439.415 133.515 438.342 133.831 437.298C134.175 436.257 134.586 435.245 135.131 434.28C135.219 434.125 135.415 434.07 135.571 434.158C135.651 434.204 135.705 434.279 135.725 434.361L135.727 434.372C135.86 434.906 135.965 435.431 136.053 435.947C136.17 436.465 136.245 436.973 136.345 437.477C136.537 438.483 136.712 439.464 136.923 440.414L137.556 443.169C137.661 443.608 137.748 444.046 137.834 444.464L137.946 445.083C137.966 445.177 137.974 445.283 137.99 445.369C137.995 445.446 138.029 445.584 137.981 445.557C138.501 446.603 138.074 447.873 137.028 448.394C135.982 448.914 134.713 448.487 134.192 447.441Z" fill="#0E403F"/>
<path d="M145.46 447.656C144.925 446.458 144.753 445.405 144.658 444.259C144.568 443.136 144.654 442.007 144.795 440.896C145.094 438.678 145.673 436.499 146.728 434.501C146.811 434.343 147.005 434.284 147.163 434.367C147.247 434.411 147.303 434.487 147.325 434.573L147.328 434.583C147.599 435.672 147.775 436.719 147.997 437.75C148.187 438.779 148.412 439.786 148.61 440.778C148.814 441.77 149.063 442.741 149.224 443.704C149.388 444.645 149.549 445.674 149.536 446.516L149.53 446.824C149.513 447.998 148.547 448.936 147.372 448.919C146.518 448.904 145.787 448.387 145.46 447.656Z" fill="#0E403F"/>
<path d="M80.7374 427.485C80.5986 427.558 80.7018 427.434 80.7103 427.392L80.8305 427.168C80.9253 427.016 81.0133 426.835 81.1233 426.667C81.3213 426.302 81.5464 425.936 81.7681 425.537C82.1997 424.743 82.7109 423.917 83.1543 423.018C83.6163 422.131 84.0547 421.195 84.51 420.239C84.7317 419.759 84.9551 419.273 85.1988 418.782C85.4205 418.288 85.666 417.792 85.9368 417.293L85.9418 417.284C86.0265 417.128 86.2228 417.071 86.3785 417.155C86.4614 417.201 86.5173 417.279 86.5376 417.364C86.8016 418.474 86.9269 419.593 86.9844 420.723C87.0115 421.85 86.9759 422.993 86.8033 424.137C86.6425 425.279 86.387 426.446 85.8877 427.564C85.649 428.126 85.3427 428.681 84.9653 429.213C84.774 429.484 84.5591 429.741 84.317 430C84.2003 430.129 84.0513 430.255 83.9176 430.382C83.7399 430.531 83.6603 430.599 83.3151 430.843C82.3876 431.554 81.0607 431.381 80.3481 430.453C79.6356 429.524 79.8099 428.196 80.7374 427.485Z" fill="#0E403F"/>
<path d="M90.0852 433.719C89.9515 433.756 90.0852 433.647 90.1174 433.595L90.3069 433.373L90.7419 432.866C91.0347 432.5 91.3478 432.119 91.6558 431.708C92.2601 430.882 92.9201 430.002 93.499 429.024C94.1015 428.062 94.6516 427.025 95.2169 425.964L96.0513 424.337C96.3153 423.782 96.6013 423.225 96.9161 422.665L96.9229 422.653C97.0092 422.501 97.2005 422.446 97.3528 422.533C97.4425 422.584 97.4983 422.673 97.5119 422.768C97.5931 423.406 97.6456 424.048 97.6761 424.691C97.6981 425.334 97.6659 425.974 97.649 426.622C97.5457 427.906 97.3748 429.208 97.0177 430.493C96.6809 431.777 96.2137 433.077 95.4572 434.279C95.0882 434.883 94.6465 435.465 94.1167 436.002C93.8561 436.274 93.5599 436.526 93.2417 436.772C93.0775 436.895 92.9015 437.007 92.7187 437.124C92.5021 437.251 92.3887 437.318 91.9859 437.501C90.9416 438.026 89.6705 437.606 89.1459 436.562C88.6212 435.516 89.0426 434.243 90.0852 433.719Z" fill="#0E403F"/>
<path d="M99.1685 239.798C101.713 231.129 98.9883 222.696 93.0832 220.963C87.1781 219.23 80.3286 224.853 77.7843 233.522C75.2399 242.191 77.9644 250.624 83.8695 252.357C89.7745 254.09 96.6242 248.467 99.1685 239.798Z" fill="#0E403F"/>
<path d="M95.0625 235.451C95.8056 232.92 95.0098 230.457 93.2851 229.951C91.5604 229.444 89.5599 231.087 88.8168 233.618C88.0737 236.15 88.8695 238.613 90.5942 239.119C92.3189 239.626 94.3194 237.983 95.0625 235.451Z" fill="white"/>
<path d="M165.52 238.536C163.424 238.82 161.282 239.196 159.273 239.719C157.25 240.239 155.309 240.902 153.474 241.711C152.543 242.092 151.678 242.583 150.797 243.03L149.539 243.806C149.111 244.05 148.711 244.334 148.322 244.631C146.689 245.724 145.311 247.13 143.949 248.557L141.031 244.07C141.677 243.913 142.109 243.847 142.623 243.781C143.119 243.712 143.607 243.676 144.094 243.639C145.069 243.575 146.039 243.593 147.004 243.651C148.931 243.773 150.839 244.148 152.655 244.771C154.457 245.421 156.211 246.213 157.741 247.33C159.32 248.359 160.647 249.706 161.82 251.099C162.163 251.507 162.111 252.115 161.703 252.458C161.4 252.714 160.985 252.75 160.652 252.584L160.549 252.531C159.78 252.149 159.085 251.7 158.338 251.35C157.582 251.013 156.868 250.641 156.101 250.38C154.601 249.803 153.075 249.38 151.528 249.155C149.993 248.886 148.436 248.801 146.897 248.86C146.127 248.886 145.364 248.963 144.61 249.057C144.236 249.114 143.862 249.165 143.502 249.243C143.317 249.275 143.145 249.319 142.972 249.359L142.725 249.419L142.546 249.468L142.475 249.486C140.987 249.886 139.455 249.004 139.056 247.515C138.81 246.599 139.061 245.655 139.628 244.979C141.222 243.111 142.952 241.295 145.037 239.939C146.022 239.179 147.151 238.656 148.224 238.055C149.358 237.576 150.472 237.053 151.651 236.737C153.978 236.018 156.382 235.635 158.761 235.61C161.155 235.608 163.478 235.858 165.794 236.635C166.302 236.806 166.576 237.356 166.405 237.864C166.283 238.226 165.97 238.468 165.616 238.517L165.52 238.536Z" fill="#0E403F"/>
</svg>
