<svg width="15" height="18" viewBox="0 0 15 18" fill="none" xmlns="http://www.w3.org/2000/svg">
<path d="M7.50018 9C8.01581 9 8.45737 8.8236 8.82487 8.4708C9.19175 8.1186 9.37518 7.695 9.37518 7.2C9.37518 6.705 9.19175 6.2811 8.82487 5.9283C8.45737 5.5761 8.01581 5.4 7.50018 5.4C6.98456 5.4 6.54331 5.5761 6.17643 5.9283C5.80893 6.2811 5.62518 6.705 5.62518 7.2C5.62518 7.695 5.80893 8.1186 6.17643 8.4708C6.54331 8.8236 6.98456 9 7.50018 9ZM7.50018 18C4.98456 15.945 3.10581 14.0361 1.86393 12.2733C0.621433 10.5111 0.000183105 8.88 0.000183105 7.38C0.000183105 5.13 0.754246 3.3375 2.26237 2.0025C3.76987 0.6675 5.51581 0 7.50018 0C9.48456 0 11.2305 0.6675 12.738 2.0025C14.2461 3.3375 15.0002 5.13 15.0002 7.38C15.0002 8.88 14.3792 10.5111 13.1374 12.2733C11.8949 14.0361 10.0158 15.945 7.50018 18Z" fill="#052C2B"/>
</svg>
