<svg width="16" height="19" viewBox="0 0 16 19" fill="none" xmlns="http://www.w3.org/2000/svg">
<path d="M8.00018 9.025C7.24242 9.025 6.5157 8.77478 5.97988 8.32938C5.44406 7.88398 5.14304 7.27989 5.14304 6.65C5.14304 6.02011 5.44406 5.41602 5.97988 4.97062C6.5157 4.52522 7.24242 4.275 8.00018 4.275C8.75794 4.275 9.48467 4.52522 10.0205 4.97062C10.5563 5.41602 10.8573 6.02011 10.8573 6.65C10.8573 7.27989 10.5563 7.88398 10.0205 8.32938C9.48467 8.77478 8.75794 9.025 8.00018 9.025ZM0.000183105 6.65C0.000183105 11.6375 8.00018 19 8.00018 19C8.00018 19 16.0002 11.6375 16.0002 6.65C16.0002 2.9735 12.423 0 8.00018 0C3.57732 0 0.000183105 2.9735 0.000183105 6.65Z" fill="#0E403F"/>
</svg>
